<svg width="2185" height="666" viewBox="0 0 2185 666" fill="none" xmlns="http://www.w3.org/2000/svg">
<g clip-path="url(#clip0_1274_928)">
<path d="M883.853 349.406V165.314H973.814L1045.71 257.36L1117.61 165.314H1206.88V349.406H1134.98V251.108L1063.08 349.406H1027.3L955.405 251.108V349.406H883.853ZM1248.91 165.314H1320.81V349.406H1248.91V165.314ZM1358.67 165.314H1430.57V291.052H1574.37V349.406H1359.02V165.314H1358.67Z" fill="#181818"/>
<path fill-rule="evenodd" clip-rule="evenodd" d="M1670.59 166.357H1598.69V350.448H1670.59V166.357ZM1813 294.526L1756.73 166.704H1676.14L1770.27 350.796H1855.72L1950.2 166.704H1869.27L1813 294.526ZM1902.26 350.448L2000.91 166.357H2086.36L2185 350.448H2104.07L2089.48 318.84H1997.44L1982.85 350.448H1902.26ZM2043.63 219.846L2018.28 274.379H2068.64L2043.63 219.846Z" fill="#51BB00"/>
<path d="M882.251 526.537V434.87H894.846V526.537H882.251ZM1022.55 434.87H1034.44V526.537H1022.2L971.816 454.261V526.537H959.92V434.87H972.515L1022.55 506.441V434.87ZM1135.2 527.948C1109.31 527.948 1092.52 509.262 1092.52 481.056C1092.52 453.204 1110.01 434.165 1135.2 434.165C1153.74 434.165 1167.39 443.684 1172.64 461.313L1161.09 465.543C1157.24 452.498 1148.15 445.447 1134.85 445.447C1117.01 445.447 1104.76 459.55 1104.76 481.409C1104.76 503.62 1116.66 517.371 1134.85 517.371C1148.15 517.371 1157.24 510.319 1161.09 497.274L1172.64 501.505C1167.74 517.371 1153.74 527.948 1135.2 527.948ZM1263.25 527.948C1237.01 527.948 1220.22 509.262 1220.22 481.056C1220.22 453.204 1238.06 434.165 1263.25 434.165C1289.49 434.165 1306.28 452.851 1306.28 481.056C1306.28 508.556 1288.79 527.948 1263.25 527.948ZM1263.25 516.665C1281.79 516.665 1293.69 502.563 1293.69 480.704C1293.69 458.845 1281.79 444.742 1263.25 444.742C1244.71 444.742 1232.81 458.845 1232.81 480.704C1232.81 502.563 1245.06 516.665 1263.25 516.665ZM1423.14 526.537L1400.75 489.87H1376.96V526.537H1364.71V434.87H1401.1C1419.99 434.87 1432.23 445.8 1432.23 462.37C1432.23 475.063 1425.24 484.229 1413.69 488.108L1437.48 526.89H1423.14V526.537ZM1376.96 446.152V478.941H1399.35C1412.64 478.941 1419.29 473.3 1419.29 462.37C1419.29 451.441 1412.64 445.8 1399.35 445.8H1376.96V446.152ZM1531.24 434.87C1550.49 434.87 1562.73 445.8 1562.73 462.723C1562.73 479.646 1550.49 490.576 1531.24 490.576H1506.05V526.89H1493.46V435.223H1531.24V434.87ZM1529.49 478.941C1542.79 478.941 1549.44 473.3 1549.44 462.37C1549.44 451.441 1542.79 445.8 1529.49 445.8H1505.7V478.588H1529.49V478.941ZM1654.4 527.948C1628.16 527.948 1611.36 509.262 1611.36 481.056C1611.36 453.204 1629.21 434.165 1654.4 434.165C1680.63 434.165 1697.43 452.851 1697.43 481.056C1697.43 508.556 1679.59 527.948 1654.4 527.948ZM1654.4 516.665C1672.94 516.665 1684.83 502.563 1684.83 480.704C1684.83 458.845 1672.94 444.742 1654.4 444.742C1635.85 444.742 1623.96 458.845 1623.96 480.704C1623.96 502.563 1635.85 516.665 1654.4 516.665ZM1814.28 526.537L1791.89 489.87H1768.1V526.537H1755.86V434.87H1792.24C1811.13 434.87 1823.38 445.8 1823.38 462.37C1823.38 475.063 1816.38 484.229 1804.84 488.108L1828.63 526.89H1814.28V526.537ZM1768.1 446.152V478.941H1790.49C1803.79 478.941 1810.43 473.3 1810.43 462.37C1810.43 451.441 1803.79 445.8 1790.49 445.8H1768.1V446.152ZM1945.48 526.537L1936.38 503.62H1891.25L1882.15 526.537H1869.21L1906.65 434.87H1921.34L1958.77 526.537H1945.48ZM1895.45 492.691H1931.84L1913.64 446.857L1895.45 492.691ZM2069.33 434.87V446.505H2036.09V526.537H2023.5V446.505H1990.26V434.87H2069.33ZM2135.1 515.255H2184.79V526.537H2122.51V434.87H2183.74V446.152H2135.1V474.005H2172.89V484.935H2135.1V515.255Z" fill="#181818"/>
<path d="M465.305 665.855H232.238C185 665.855 140.193 642.931 112.753 604.376L27.3064 485.585C-5.69117 439.041 -9.1646 377.214 18.9701 327.544L161.728 74.6786C187.779 28.8294 236.754 0 289.897 0H529.911C576.107 0 620.22 22.2299 648.007 59.3956L733.801 175.061C768.882 222.299 772.356 285.863 742.484 336.922L592.085 593.261C566.034 638.068 517.407 665.855 465.305 665.855ZM289.897 78.152C264.889 78.152 241.964 91.6984 229.807 113.234L87.0493 366.099C73.8502 389.371 75.587 418.548 90.87 440.083L176.316 559.221C189.168 577.283 210.356 588.051 232.238 588.051H465.653C489.966 588.051 512.891 574.852 525.048 554.011L675.1 297.672C688.994 273.706 687.604 243.834 670.932 221.604L585.138 105.939C572.287 88.5723 551.446 78.152 529.564 78.152H289.897Z" fill="#181818"/>
<path d="M296.844 358.455L356.587 285.861L248.216 162.901H247.521L150.96 333.794V524.138L175.969 559.219C188.82 577.281 210.008 588.048 231.891 588.048H248.216V306.701L296.844 358.455Z" fill="#181818"/>
<path d="M501.779 526.227L602.508 344.561V162.901H510.809L325.329 389.021L389.24 457.1L473.297 354.287L501.779 319.9V526.227Z" fill="#51BB00"/>
</g>
<defs>
<clipPath id="clip0_1274_928">
<rect width="2185" height="666" fill="white"/>
</clipPath>
</defs>
</svg>
