<svg width="1212" height="1322" viewBox="0 0 1212 1322" fill="none" xmlns="http://www.w3.org/2000/svg">
<g clip-path="url(#clip0_1274_1150)">
<path d="M4.125 1158.84V988.618H87.3103L153.794 1073.73L220.278 988.618H302.821V1158.84H236.337V1067.95L169.853 1158.84H136.772L70.2879 1067.95V1158.84H4.125ZM341.684 988.618H408.168V1158.84H341.684V988.618ZM443.177 988.618H509.661V1104.88H642.629V1158.84H443.498V988.618H443.177Z" fill="#181818"/>
<path fill-rule="evenodd" clip-rule="evenodd" d="M731.598 989.565H665.114V1159.79H731.598V989.565ZM863.282 1108.08L811.251 989.887H736.737L823.777 1160.11H902.787L990.147 989.887H915.313L863.282 1108.08ZM945.825 1159.79L1037.04 989.565H1116.05L1207.26 1159.79H1132.43L1118.94 1130.56H1033.83L1020.34 1159.79H945.825ZM1076.54 1039.01L1053.1 1089.44H1099.67L1076.54 1039.01Z" fill="#51BB00"/>
<path d="M4 1320.71V1236.65H15.6422V1320.71H4ZM133.681 1236.65H144.677V1320.71H133.358L86.7892 1254.43V1320.71H75.7938V1236.65H87.4359L133.681 1302.28V1236.65ZM237.815 1322C213.883 1322 198.36 1304.86 198.36 1279C198.36 1253.46 214.53 1236 237.815 1236C254.955 1236 267.567 1244.73 272.418 1260.89L261.746 1264.77C258.189 1252.81 249.78 1246.35 237.491 1246.35C220.998 1246.35 209.679 1259.28 209.679 1279.32C209.679 1299.69 220.675 1312.3 237.491 1312.3C249.78 1312.3 258.189 1305.83 261.746 1293.87L272.418 1297.75C267.89 1312.3 254.955 1322 237.815 1322ZM356.177 1322C331.923 1322 316.4 1304.86 316.4 1279C316.4 1253.46 332.893 1236 356.177 1236C380.432 1236 395.955 1253.14 395.955 1279C395.955 1304.22 379.785 1322 356.177 1322ZM356.177 1311.65C373.317 1311.65 384.313 1298.72 384.313 1278.68C384.313 1258.63 373.317 1245.7 356.177 1245.7C339.037 1245.7 328.042 1258.63 328.042 1278.68C328.042 1298.72 339.361 1311.65 356.177 1311.65ZM503.969 1320.71L483.272 1287.08H461.281V1320.71H449.962V1236.65H483.595C501.058 1236.65 512.377 1246.67 512.377 1261.86C512.377 1273.5 505.909 1281.91 495.237 1285.47L517.228 1321.03H503.969V1320.71ZM461.281 1246.99V1277.06H481.978C494.267 1277.06 500.412 1271.89 500.412 1261.86C500.412 1251.84 494.267 1246.67 481.978 1246.67H461.281V1246.99ZM603.898 1236.65C621.685 1236.65 633.004 1246.67 633.004 1262.19C633.004 1277.71 621.685 1287.73 603.898 1287.73H580.613V1321.03H568.971V1236.97H603.898V1236.65ZM602.281 1277.06C614.57 1277.06 620.715 1271.89 620.715 1261.86C620.715 1251.84 614.57 1246.67 602.281 1246.67H580.29V1276.74H602.281V1277.06ZM717.733 1322C693.478 1322 677.955 1304.86 677.955 1279C677.955 1253.46 694.449 1236 717.733 1236C741.988 1236 757.511 1253.14 757.511 1279C757.511 1304.22 741.018 1322 717.733 1322ZM717.733 1311.65C734.873 1311.65 745.868 1298.72 745.868 1278.68C745.868 1258.63 734.873 1245.7 717.733 1245.7C700.593 1245.7 689.598 1258.63 689.598 1278.68C689.598 1298.72 700.593 1311.65 717.733 1311.65ZM865.525 1320.71L844.827 1287.08H822.837V1320.71H811.518V1236.65H845.151C862.614 1236.65 873.933 1246.67 873.933 1261.86C873.933 1273.5 867.465 1281.91 856.793 1285.47L878.784 1321.03H865.525V1320.71ZM822.837 1246.99V1277.06H843.534C855.823 1277.06 861.967 1271.89 861.967 1261.86C861.967 1251.84 855.823 1246.67 843.534 1246.67H822.837V1246.99ZM986.798 1320.71L978.389 1299.69H936.672L928.263 1320.71H916.298L950.901 1236.65H964.484L999.087 1320.71H986.798ZM940.552 1289.67H974.185L957.369 1247.64L940.552 1289.67ZM1101.28 1236.65V1247.32H1070.56V1320.71H1058.91V1247.32H1028.19V1236.65H1101.28ZM1162.08 1310.36H1208V1320.71H1150.44V1236.65H1207.03V1246.99H1162.08V1272.53H1197V1282.56H1162.08V1310.36Z" fill="#181818"/>
<path d="M708.335 827.052H418.845C360.17 827.052 304.516 798.578 270.433 750.689L164.301 603.14C123.315 545.328 119.001 468.534 153.946 406.839L331.264 92.7576C363.622 35.8087 424.453 0 490.462 0H788.581C845.961 0 900.753 27.6116 935.267 73.7746L1041.83 217.441C1085.4 276.116 1089.72 355.067 1052.62 418.488L865.807 736.883C833.449 792.538 773.049 827.052 708.335 827.052ZM490.462 97.0719C459.399 97.0719 430.925 113.898 415.825 140.646L238.507 454.728C222.112 483.634 224.27 519.874 243.253 546.622L349.384 694.603C365.347 717.037 391.665 730.412 418.845 730.412H708.766C738.966 730.412 767.441 714.017 782.541 688.132L968.919 369.736C986.176 339.967 984.45 302.864 963.741 275.253L857.178 131.586C841.215 110.015 815.329 97.0719 788.149 97.0719H490.462Z" fill="#181818"/>
<path d="M499.091 445.226L573.297 355.057L438.691 202.331H437.828L317.891 414.594V651.018L348.954 694.593C364.917 717.027 391.234 730.401 418.414 730.401H438.691V380.943L499.091 445.226Z" fill="#181818"/>
<path d="M753.637 639.37L878.752 427.969V202.331H764.855L534.471 483.192L613.854 567.752L718.26 440.049L753.637 397.337V639.37Z" fill="#51BB00"/>
</g>
<defs>
<clipPath id="clip0_1274_1150">
<rect width="1212" height="1322" fill="white"/>
</clipPath>
</defs>
</svg>
